Patient4_TMGait_0pt7_02_left_12_EMG.mot
version=1
nRows=16
nColumns=33
inDegrees=no
endheader
time	1LAddLong	2LGlutMax	3LGlutMed	4LIliopsoas	5LSemiMemb	6LBicFemLong	7LRecFem	8LVastMed	9LVastLat	10LGasMed	11LTibAnt	12lTibPost	13LPeroneusLong	14LSol	15LExtDigLong	16LFlexDigLong	17RAddLong	18RGlutMax	19RGlutMed	20RIliopsoas	21RSemiMemb	22RBicFemLong	23RRecFem	24RVastMed	25RVastLat	26RGasMed	27RTibAnt	28RTibPost	29RPeroneusLong	30RSol	31RExtDigLong	32RFlexDigLong
13.39	0.022736	0.080566	-0.024414	-0.000458	-0.015564	-0.021362	-0.043945	0.009613	0.23193	-0.014648	0.077057	-0.011597	0.047455	-0.17288	0.04715	-0.18066	-0.007782	-0.17593	0.15671	0.002441	0.014343	-0.091705	0.23041	0.05249	-0.49133	-0.017853	-0.092468	0.003815	1.0835	-0.16785	-0.005188	-0.014801
13.391	0.01709	0.050659	-0.036163	0.002594	0.008698	-0.039215	-0.031128	0.005341	0.22659	-0.010834	0.054932	0.005798	0.020599	-0.067444	0.06485	0.11978	0.014648	-0.12604	0.03067	-0.00946	0.057678	-0.080566	0.22415	0.055695	-0.20599	0.006561	-0.14847	0.026855	0.62607	-0.15335	0.002136	-0.02533
13.392	0.009308	-0.015564	-0.027313	0.00885	0.019379	-0.011139	-0.024872	0.002747	0.22186	-0.002136	0.017395	-0.000153	0.018311	-0.066071	0.065002	0.17975	0.018616	-0.008545	0.084686	0.005493	0.018921	-0.037537	0.004272	0.075989	-0.057373	-0.002441	0.019226	0.001221	-0.076447	-0.15442	0.000305	-0.028229
13.393	0.006714	-0.019989	-0.035553	0.007477	0.006104	0.007629	-0.040283	0.002747	0.21515	0.019836	0.000153	-0.006866	0.037231	-0.072327	0.055389	0.27664	0.012054	-0.002747	0.22614	0.01297	-0.007935	-0.041046	-0.020905	0.039215	-0.52002	-0.00824	0.18433	-0.010529	0.71182	0.057983	0.001831	-0.026855
13.394	0.005493	-0.061493	-0.027008	0.006409	-0.000458	0.010223	-0.048065	0.003662	0.2066	0.02121	0.007935	-0.00473	0.080719	-0.10239	0.016327	-0.13001	0.003204	-0.00061	0.058899	0.032043	-0.13519	-0.041199	0.060883	0.12894	-0.60989	-0.017548	0.56763	0.001831	0.52002	0.067444	-0.003052	-0.012665
13.395	0.003967	-0.079041	-0.033722	-0.007935	-0.009613	-0.013123	-0.034637	0.009766	0.20966	-0.005341	-0.003967	-0.011444	0.092773	-0.064392	-0.006409	0.061188	-0.003052	-0.056458	-0.015106	-0.14084	-0.065613	-0.11566	0.1384	-0.029144	-0.20355	-0.015259	0.9491	0.010529	0.006866	0.069733	-0.001068	-0.010223
13.396	0.011902	-0.07782	-0.051422	-0.011292	-0.001678	0.013275	-0.044098	0.005493	0.1973	-0.080566	0.002899	-0.000153	0.020294	-0.02182	0.018005	0.038452	0.035095	-0.018463	0.013123	-0.21011	-0.014038	-0.16571	0.17868	-0.088196	0.053864	-0.009003	1.0054	0.007629	0.57022	-0.046387	-0.001678	-0.00946
13.397	0.018005	-0.077209	-0.062866	0.009003	-0.014038	0.02182	-0.034943	0.00412	0.19272	-0.11169	0.00824	-0.005493	-0.059357	0.029907	0.12528	-0.03891	0.024567	-0.012665	-0.15076	-0.13382	-0.0354	-0.13229	0.14328	-0.063934	0.089264	0.005341	0.46814	0.000763	0.21225	-0.26566	-0.002289	-0.005646
13.398	0.021515	-0.097198	-0.061951	0.007935	-0.008392	0.029907	-0.022125	0.009003	0.18799	-0.097809	0.038757	-0.009003	-0.09903	0.010986	0.1683	0.018311	0.018158	0.003052	-0.072327	-0.015259	-0.028687	-0.10086	0.16434	-0.001831	0.000763	0.002136	-0.52887	-0.007324	-0.7991	-0.16357	0.003815	-0.007172
13.399	0.022278	-0.078888	-0.047455	0.006409	-0.00351	0.018158	-0.037994	0.00824	0.15549	-0.084534	-0.005035	0.004272	-0.085297	-0.053711	0.06546	0.001068	0.014648	0.087433	-0.019379	0.069885	-0.009308	-0.077667	0.12222	0.053101	-0.13916	-0.001831	-0.72601	0.020905	-1.0039	0.025177	-0.004272	-0.004883
13.4	0.01358	-0.084229	-0.054321	0.003357	-0.027771	0.023651	-0.037994	0.010071	0.1564	-0.066376	0.017242	-0.019836	-0.067291	-0.08606	-0.009155	-0.020752	0.018005	0.051422	0.11414	0.063934	0.03006	-0.035248	0.28275	-0.10254	-0.19745	0.003815	-0.35095	0.023804	-0.64392	-0.10651	-0.000458	-0.000763
13.401	0.008698	-0.057678	-0.055695	-0.00061	-0.020294	0.010834	-0.036621	0.00473	0.15518	-0.013123	0.027161	-0.010681	-0.061493	-0.068665	-0.011902	-0.027771	0.018005	0.066681	0.001221	-0.27802	-0.13962	-0.00824	0.14618	-0.18143	-0.19409	0.015106	-0.16342	0.017242	0.28961	-0.39108	-0.002594	-0.003662
13.402	0.009003	-0.048676	-0.066528	-0.004272	0.022278	0.015411	-0.036469	0.006714	0.159	-0.023041	0.078583	-0.001526	0.042877	-0.057068	0.13245	-0.016327	-0.011139	0.081024	0.073547	-0.40085	-0.17136	-0.023041	-0.22537	-0.11337	-0.24826	0.00946	-0.1503	0.003357	1.0696	-0.26764	-0.003052	-0.002289
13.403	0.012054	-0.016327	-0.078888	0.013428	0.036621	0.032959	-0.05127	0.005951	0.14618	-0.056915	0.077057	-0.001984	0.18585	-0.015869	0.027618	-0.015106	-0.011749	0.086365	0.13077	-0.17868	-0.10727	-0.020142	-0.23651	-0.15686	0.056152	-0.017395	0.14389	-0.001068	0.28549	0.030212	-0.004883	-0.011749
13.404	0.001526	0.029755	-0.074463	-0.002747	0.002289	0.037842	-0.058136	0.007782	0.15137	-0.051422	0.013733	-0.007324	0.18066	-0.015564	-0.045776	-0.023193	-0.025024	0.10742	0.22675	0.18448	-0.067749	-0.029297	-0.20416	0.04776	0.38254	-0.028381	0.39978	-0.006256	-0.45364	-0.017548	-0.002899	-0.01297
13.405	-0.002136	0.080109	-0.047455	-0.002594	-0.011292	0.016327	-0.05722	0.001831	0.15259	-0.020142	-0.023651	-0.006104	0.12924	-0.021973	-0.024872	-0.007629	-0.020142	0.17212	0.40695	0.51086	0.00351	0.010223	-0.2713	0.12863	0.40558	-0.015106	0.40832	0.005188	0.89447	-0.10742	-0.001984	-0.01236
